{
  "accessors": [
    {
      "bufferView": 2,
      "componentType": 5126,
      "count": 65532,
      "max": [
        0.07907968014478683,
        0.10780708491802216,
        0.09027324616909027
      ],
      "min": [
        -0.10375970602035522,
        -0.03541654720902443,
        -0.07044309377670288
      ],
      "type": "VEC3"
    },
    {
      "bufferView": 2,
      "byteOffset": 786384,
      "componentType": 5126,
      "count": 65532,
      "max": [
        0.9999945759773254,
        0.9998334646224976,
        0.9988870024681091
      ],
      "min": [
        -0.9995095729827881,
        -0.9999893307685852,
        -0.9999740719795227
      ],
      "type": "VEC3"
    },
    {
      "bufferView": 1,
      "componentType": 5126,
      "count": 65532,
      "max": [
        0.9997159838676453,
        0.9983749985694885
      ],
      "min": [
        0.00020300000323913991,
        0.00019502639770507813
      ],
      "type": "VEC2"
    },
    {
      "bufferView": 0,
      "componentType": 5125,
      "count": 298521,
      "type": "SCALAR"
    },
    {
      "bufferView": 2,
      "byteOffset": 1572768,
      "componentType": 5126,
      "count": 65534,
      "max": [
        0.07854239642620087,
        0.10791656374931335,
        0.09022103250026703
      ],
      "min": [
        -0.10306406766176224,
        -0.03479054197669029,
        -0.0687052309513092
      ],
      "type": "VEC3"
    },
    {
      "bufferView": 2,
      "byteOffset": 2359176,
      "componentType": 5126,
      "count": 65534,
      "max": [
        0.9997218251228333,
        0.9998334646224976,
        0.9999974966049194
      ],
      "min": [
        -0.9995095729827881,
        -0.999489426612854,
        -0.9999146461486816
      ],
      "type": "VEC3"
    },
    {
      "bufferView": 1,
      "byteOffset": 524256,
      "componentType": 5126,
      "count": 65534,
      "max": [
        0.9984679818153381,
        0.9982630014419556
      ],
      "min": [
        0.0002699999895412475,
        0.0002110004425048828
      ],
      "type": "VEC2"
    },
    {
      "bufferView": 0,
      "byteOffset": 1194084,
      "componentType": 5125,
      "count": 290601,
      "type": "SCALAR"
    },
    {
      "bufferView": 2,
      "byteOffset": 3145584,
      "componentType": 5126,
      "count": 65532,
      "max": [
        0.07907968014478683,
        0.10791656374931335,
        0.09027399122714996
      ],
      "min": [
        -0.10158499330282211,
        -0.033843107521533966,
        -0.06883792579174042
      ],
      "type": "VEC3"
    },
    {
      "bufferView": 2,
      "byteOffset": 3931968,
      "componentType": 5126,
      "count": 65532,
      "max": [
        0.9999724626541138,
        0.9999992847442627,
        0.999984085559845
      ],
      "min": [
        -0.9977658987045288,
        -0.9999927282333374,
        -0.9999643564224243
      ],
      "type": "VEC3"
    },
    {
      "bufferView": 1,
      "byteOffset": 1048528,
      "componentType": 5126,
      "count": 65532,
      "max": [
        0.9991869926452637,
        0.9969729781150818
      ],
      "min": [
        0.0001829999964684248,
        0.00023502111434936523
      ],
      "type": "VEC2"
    },
    {
      "bufferView": 0,
      "byteOffset": 2356488,
      "componentType": 5125,
      "count": 283974,
      "type": "SCALAR"
    },
    {
      "bufferView": 2,
      "byteOffset": 4718352,
      "componentType": 5126,
      "count": 65532,
      "max": [
        0.07856026291847229,
        0.10666795819997787,
        0.08983355760574341
      ],
      "min": [
        -0.10005471855401993,
        -0.03457321599125862,
        -0.06799839437007904
      ],
      "type": "VEC3"
    },
    {
      "bufferView": 2,
      "byteOffset": 5504736,
      "componentType": 5126,
      "count": 65532,
      "max": [
        0.9997421503067017,
        0.9999771118164063,
        0.999984085559845
      ],
      "min": [
        -0.9999182224273682,
        -0.9997562170028687,
        -0.999991774559021
      ],
      "type": "VEC3"
    },
    {
      "bufferView": 1,
      "byteOffset": 1572784,
      "componentType": 5126,
      "count": 65532,
      "max": [
        0.9989449977874756,
        0.9997270107269287
      ],
      "min": [
        0.0014809999847784638,
        0.00018799304962158203
      ],
      "type": "VEC2"
    },
    {
      "bufferView": 0,
      "byteOffset": 3492384,
      "componentType": 5125,
      "count": 267114,
      "type": "SCALAR"
    },
    {
      "bufferView": 2,
      "byteOffset": 6291120,
      "componentType": 5126,
      "count": 65532,
      "max": [
        0.07888432592153549,
        0.10747091472148895,
        0.09028297662734985
      ],
      "min": [
        -0.10328231006860733,
        -0.035463668406009674,
        -0.06939677894115448
      ],
      "type": "VEC3"
    },
    {
      "bufferView": 2,
      "byteOffset": 7077504,
      "componentType": 5126,
      "count": 65532,
      "max": [
        0.9999724626541138,
        0.9999992847442627,
        0.9999194741249084
      ],
      "min": [
        -0.9999721050262451,
        -0.9999978542327881,
        -0.9997424483299255
      ],
      "type": "VEC3"
    },
    {
      "bufferView": 1,
      "byteOffset": 2097040,
      "componentType": 5126,
      "count": 65532,
      "max": [
        0.9996579885482788,
        0.9995219707489014
      ],
      "min": [
        0.00021699999342672527,
        0.00020599365234375
      ],
      "type": "VEC2"
    },
    {
      "bufferView": 0,
      "byteOffset": 4560840,
      "componentType": 5125,
      "count": 244500,
      "type": "SCALAR"
    },
    {
      "bufferView": 2,
      "byteOffset": 7863888,
      "componentType": 5126,
      "count": 65534,
      "max": [
        0.07882700860500336,
        0.10757608711719513,
        0.0901525616645813
      ],
      "min": [
        -0.10375970602035522,
        -0.035463668406009674,
        -0.07044309377670288
      ],
      "type": "VEC3"
    },
    {
      "bufferView": 2,
      "byteOffset": 8650296,
      "componentType": 5126,
      "count": 65534,
      "max": [
        0.9999195337295532,
        0.9997391700744629,
        0.999984085559845
      ],
      "min": [
        -0.9999379515647888,
        -0.9999985694885254,
        -0.9999982118606567
      ],
      "type": "VEC3"
    },
    {
      "bufferView": 1,
      "byteOffset": 2621296,
      "componentType": 5126,
      "count": 65534,
      "max": [
        0.9997079968452454,
        0.9994149804115295
      ],
      "min": [
        0.00023700000019744039,
        0.00020700693130493164
      ],
      "type": "VEC2"
    },
    {
      "bufferView": 0,
      "byteOffset": 5538840,
      "componentType": 5125,
      "count": 236670,
      "type": "SCALAR"
    },
    {
      "bufferView": 2,
      "byteOffset": 9436704,
      "componentType": 5126,
      "count": 65532,
      "max": [
        0.07882974296808243,
        0.10757608711719513,
        0.08995278179645538
      ],
      "min": [
        -0.10351613163948059,
        -0.03388591855764389,
        -0.07034701108932495
      ],
      "type": "VEC3"
    },
    {
      "bufferView": 2,
      "byteOffset": 10223088,
      "componentType": 5126,
      "count": 65532,
      "max": [
        0.9999195337295532,
        0.9999297857284546,
        0.9999803900718689
      ],
      "min": [
        -0.9998787641525269,
        -0.9999334812164307,
        -0.9999354481697083
      ],
      "type": "VEC3"
    },
    {
      "bufferView": 1,
      "byteOffset": 3145568,
      "componentType": 5126,
      "count": 65532,
      "max": [
        0.9997419714927673,
        0.9995139837265015
      ],
      "min": [
        0.00018699999782256782,
        0.00018399953842163086
      ],
      "type": "VEC2"
    },
    {
      "bufferView": 0,
      "byteOffset": 6485520,
      "componentType": 5125,
      "count": 207852,
      "type": "SCALAR"
    },
    {
      "bufferView": 2,
      "byteOffset": 11009472,
      "componentType": 5126,
      "count": 65532,
      "max": [
        0.07878545671701431,
        0.10758662223815918,
        0.09025505185127258
      ],
      "min": [
        -0.10288883745670319,
        -0.0348048210144043,
        -0.06921632587909698
      ],
      "type": "VEC3"
    },
    {
      "bufferView": 2,
      "byteOffset": 11795856,
      "componentType": 5126,
      "count": 65532,
      "max": [
        0.9999195337295532,
        0.9999862909317017,
        0.9999974966049194
      ],
      "min": [
        -0.9999856352806091,
        -0.9999902844429016,
        -0.9999643564224243
      ],
      "type": "VEC3"
    },
    {
      "bufferView": 1,
      "byteOffset": 3669824,
      "componentType": 5126,
      "count": 65532,
      "max": [
        0.9998000264167786,
        0.9997169971466064
      ],
      "min": [
        0.00018200000340584666,
        0.00018602609634399414
      ],
      "type": "VEC2"
    },
    {
      "bufferView": 0,
      "byteOffset": 7316928,
      "componentType": 5125,
      "count": 188223,
      "type": "SCALAR"
    },
    {
      "bufferView": 2,
      "byteOffset": 12582240,
      "componentType": 5126,
      "count": 65534,
      "max": [
        0.07902678847312927,
        0.10764429718255997,
        0.09027399122714996
      ],
      "min": [
        -0.10356930643320084,
        -0.03484882786870003,
        -0.0693318247795105
      ],
      "type": "VEC3"
    },
    {
      "bufferView": 2,
      "byteOffset": 13368648,
      "componentType": 5126,
      "count": 65534,
      "max": [
        0.9999111890792847,
        0.9999992847442627,
        0.9999462962150574
      ],
      "min": [
        -0.9999856352806091,
        -0.9999880194664001,
        -0.9996424913406372
      ],
      "type": "VEC3"
    },
    {
      "bufferView": 1,
      "byteOffset": 4194080,
      "componentType": 5126,
      "count": 65534,
      "max": [
        0.9998160004615784,
        0.9997169971466064
      ],
      "min": [
        0.00018200000340584666,
        0.00018197298049926758
      ],
      "type": "VEC2"
    },
    {
      "bufferView": 0,
      "byteOffset": 8069820,
      "componentType": 5125,
      "count": 157605,
      "type": "SCALAR"
    },
    {
      "bufferView": 2,
      "byteOffset": 14155056,
      "componentType": 5126,
      "count": 65532,
      "max": [
        0.0766713097691536,
        0.10791656374931335,
        0.09029459953308105
      ],
      "min": [
        -0.10368227958679199,
        -0.035463668406009674,
        -0.07044309377670288
      ],
      "type": "VEC3"
    },
    {
      "bufferView": 2,
      "byteOffset": 14941440,
      "componentType": 5126,
      "count": 65532,
      "max": [
        0.9996684789657593,
        0.9999607801437378,
        0.9999974966049194
      ],
      "min": [
        -0.9998458623886108,
        -0.9999927282333374,
        -0.9999740719795227
      ],
      "type": "VEC3"
    },
    {
      "bufferView": 1,
      "byteOffset": 4718352,
      "componentType": 5126,
      "count": 65532,
      "max": [
        0.9998109936714172,
        0.9994969964027405
      ],
      "min": [
        0.00019799999427050352,
        0.00017899274826049805
      ],
      "type": "VEC2"
    },
    {
      "bufferView": 0,
      "byteOffset": 8700240,
      "componentType": 5125,
      "count": 113877,
      "type": "SCALAR"
    },
    {
      "bufferView": 2,
      "byteOffset": 15727824,
      "componentType": 5126,
      "count": 48035,
      "max": [
        0.07902678847312927,
        0.10738392919301987,
        0.09027399122714996
      ],
      "min": [
        -0.10362592339515686,
        -0.03414212912321091,
        -0.06974738836288452
      ],
      "type": "VEC3"
    },
    {
      "bufferView": 2,
      "byteOffset": 16304244,
      "componentType": 5126,
      "count": 48035,
      "max": [
        0.9999111890792847,
        0.99998939037323,
        0.9999025464057922
      ],
      "min": [
        -0.9999856352806091,
        -0.9999904036521912,
        -0.9999815225601196
      ],
      "type": "VEC3"
    },
    {
      "bufferView": 1,
      "byteOffset": 5242608,
      "componentType": 5126,
      "count": 48035,
      "max": [
        0.9997230172157288,
        0.9994590282440186
      ],
      "min": [
        0.0001849999971454963,
        0.00018197298049926758
      ],
      "type": "VEC2"
    },
    {
      "bufferView": 0,
      "byteOffset": 9155748,
      "componentType": 5125,
      "count": 59910,
      "type": "SCALAR"
    }
  ],
  "asset": {
    "extras": {
      "author": "ffish.asia / floraZia.com (https://sketchfab.com/ffishAsia-and-floraZia)",
      "license": "CC0-1.0 (http://creativecommons.org/publicdomain/zero/1.0/)",
      "source": "https://sketchfab.com/3d-models/cc0-rip-my-friend-abc1bba2bdac40d0acff87d52a3aa0a7",
      "title": "CC0 | RIP My Friend"
    },
    "generator": "Sketchfab-15.58.0",
    "version": "2.0"
  },
  "bufferViews": [
    {
      "buffer": 0,
      "byteLength": 9395388,
      "name": "floatBufferViews",
      "target": 34963
    },
    {
      "buffer": 0,
      "byteLength": 5626888,
      "byteOffset": 9395388,
      "byteStride": 8,
      "name": "floatBufferViews",
      "target": 34962
    },
    {
      "buffer": 0,
      "byteLength": 16880664,
      "byteOffset": 15022276,
      "byteStride": 12,
      "name": "floatBufferViews",
      "target": 34962
    }
  ],
  "buffers": [
    {
      "byteLength": 31902940,
      "uri": "scene.bin"
    }
  ],
  "extensionsUsed": [
    "KHR_materials_unlit"
  ],
  "images": [
    {
      "uri": "textures/MRKT058-W01-1-1.001_baseColor.jpeg"
    }
  ],
  "materials": [
    {
      "doubleSided": true,
      "extensions": {
        "KHR_materials_unlit": {}
      },
      "name": "MRKT058-W01-1-1.001",
      "pbrMetallicRoughness": {
        "baseColorTexture": {
          "index": 0
        },
        "metallicFactor": 0.0
      }
    }
  ],
  "meshes": [
    {
      "name": "Object_0",
      "primitives": [
        {
          "attributes": {
            "NORMAL": 1,
            "POSITION": 0,
            "TEXCOORD_0": 2
          },
          "indices": 3,
          "material": 0,
          "mode": 4
        }
      ]
    },
    {
      "name": "Object_1",
      "primitives": [
        {
          "attributes": {
            "NORMAL": 5,
            "POSITION": 4,
            "TEXCOORD_0": 6
          },
          "indices": 7,
          "material": 0,
          "mode": 4
        }
      ]
    },
    {
      "name": "Object_2",
      "primitives": [
        {
          "attributes": {
            "NORMAL": 9,
            "POSITION": 8,
            "TEXCOORD_0": 10
          },
          "indices": 11,
          "material": 0,
          "mode": 4
        }
      ]
    },
    {
      "name": "Object_3",
      "primitives": [
        {
          "attributes": {
            "NORMAL": 13,
            "POSITION": 12,
            "TEXCOORD_0": 14
          },
          "indices": 15,
          "material": 0,
          "mode": 4
        }
      ]
    },
    {
      "name": "Object_4",
      "primitives": [
        {
          "attributes": {
            "NORMAL": 17,
            "POSITION": 16,
            "TEXCOORD_0": 18
          },
          "indices": 19,
          "material": 0,
          "mode": 4
        }
      ]
    },
    {
      "name": "Object_5",
      "primitives": [
        {
          "attributes": {
            "NORMAL": 21,
            "POSITION": 20,
            "TEXCOORD_0": 22
          },
          "indices": 23,
          "material": 0,
          "mode": 4
        }
      ]
    },
    {
      "name": "Object_6",
      "primitives": [
        {
          "attributes": {
            "NORMAL": 25,
            "POSITION": 24,
            "TEXCOORD_0": 26
          },
          "indices": 27,
          "material": 0,
          "mode": 4
        }
      ]
    },
    {
      "name": "Object_7",
      "primitives": [
        {
          "attributes": {
            "NORMAL": 29,
            "POSITION": 28,
            "TEXCOORD_0": 30
          },
          "indices": 31,
          "material": 0,
          "mode": 4
        }
      ]
    },
    {
      "name": "Object_8",
      "primitives": [
        {
          "attributes": {
            "NORMAL": 33,
            "POSITION": 32,
            "TEXCOORD_0": 34
          },
          "indices": 35,
          "material": 0,
          "mode": 4
        }
      ]
    },
    {
      "name": "Object_9",
      "primitives": [
        {
          "attributes": {
            "NORMAL": 37,
            "POSITION": 36,
            "TEXCOORD_0": 38
          },
          "indices": 39,
          "material": 0,
          "mode": 4
        }
      ]
    },
    {
      "name": "Object_10",
      "primitives": [
        {
          "attributes": {
            "NORMAL": 41,
            "POSITION": 40,
            "TEXCOORD_0": 42
          },
          "indices": 43,
          "material": 0,
          "mode": 4
        }
      ]
    }
  ],
  "nodes": [
    {
      "children": [
        1
      ],
      "matrix": [
        1.0,
        0.0,
        0.0,
        0.0,
        0.0,
        2.220446049250313e-16,
        -1.0,
        0.0,
        0.0,
        1.0,
        2.220446049250313e-16,
        0.0,
        0.0,
        0.0,
        0.0,
        1.0
      ],
      "name": "Sketchfab_model"
    },
    {
      "children": [
        2
      ],
      "name": "root"
    },
    {
      "children": [
        3
      ],
      "matrix": [
        1.0,
        0.0,
        0.0,
        0.0,
        0.0,
        2.220446049250313e-16,
        1.0,
        0.0,
        0.0,
        -1.0,
        2.220446049250313e-16,
        0.0,
        0.0,
        0.0,
        0.0,
        1.0
      ],
      "name": "GLTF_SceneRootNode"
    },
    {
      "children": [
        4,
        5,
        6,
        7,
        8,
        9,
        10,
        11,
        12,
        13,
        14
      ],
      "name": "MRKT058-W01-1-1.001_0"
    },
    {
      "mesh": 0,
      "name": "Object_4"
    },
    {
      "mesh": 1,
      "name": "Object_5"
    },
    {
      "mesh": 2,
      "name": "Object_6"
    },
    {
      "mesh": 3,
      "name": "Object_7"
    },
    {
      "mesh": 4,
      "name": "Object_8"
    },
    {
      "mesh": 5,
      "name": "Object_9"
    },
    {
      "mesh": 6,
      "name": "Object_10"
    },
    {
      "mesh": 7,
      "name": "Object_11"
    },
    {
      "mesh": 8,
      "name": "Object_12"
    },
    {
      "mesh": 9,
      "name": "Object_13"
    },
    {
      "mesh": 10,
      "name": "Object_14"
    }
  ],
  "samplers": [
    {
      "magFilter": 9729,
      "minFilter": 9987,
      "wrapS": 10497,
      "wrapT": 10497
    }
  ],
  "scene": 0,
  "scenes": [
    {
      "name": "Sketchfab_Scene",
      "nodes": [
        0
      ]
    }
  ],
  "textures": [
    {
      "sampler": 0,
      "source": 0
    }
  ]
}
